<svg width="127" height="127" viewBox="0 0 127 127" fill="none" xmlns="http://www.w3.org/2000/svg">
<path d="M0 13.8906C0 6.21905 6.21905 0 13.8906 0H113.109C120.781 0 127 6.21905 127 13.8906V113.109C127 120.781 120.781 127 113.109 127H13.8906C6.21905 127 0 120.781 0 113.109V13.8906Z" fill="white"/>
<path d="M37.8965 70.0187C37.3969 68.2355 35.7546 67 33.8854 67H23.1637C21.9148 67 20.7304 67.556 19.9394 68.5135C19.1485 69.471 18.8341 70.7292 19.0839 71.942C20.9802 81.1444 25.6448 89.4223 32.572 95.8798C33.3505 96.6046 34.3725 97 35.4257 97C35.6277 97 35.8296 96.9856 36.0315 96.9568C37.2908 96.7735 38.396 96.0322 39.0309 94.9408L44.4428 85.6684C45.3462 84.1199 45.1359 82.1699 43.9224 80.8438C41.102 77.7612 39.0163 74.0176 37.8965 70.0187Z" fill="#77B3D4"/>
<path d="M73.1527 91.5612C72.4141 90.3239 71.0551 89.591 69.6186 89.591C69.3288 89.591 69.037 89.6206 68.7473 89.6817C66.9006 90.0718 65.0152 90.2688 63.1481 90.2688C60.5363 90.2688 57.9571 89.8984 55.4778 89.1714C55.084 89.0552 54.6841 89 54.2903 89C52.8619 89 51.4988 89.727 50.7561 90.9701L45.5467 99.6821C44.9447 100.689 44.8345 101.898 45.2426 102.992C45.6508 104.085 46.5384 104.946 47.6668 105.348C52.6028 107.108 57.8101 108 63.1481 108C67.5638 108 71.9203 107.383 76.0972 106.168C77.2909 105.821 78.254 104.966 78.7131 103.847C79.1722 102.728 79.0763 101.467 78.454 100.425L73.1527 91.5612Z" fill="#76C2AF"/>
<path d="M88.6221 56.0304C89.1039 57.7847 90.7029 59 92.5265 59H102.952C104.167 59 105.316 58.457 106.086 57.5182C106.855 56.5815 107.16 55.3501 106.919 54.1631C104.928 44.3297 99.5621 35.3705 91.812 28.9347C91.0793 28.327 90.1604 28 89.2213 28C88.9844 28 88.7476 28.0202 88.5108 28.0626C87.3348 28.2725 86.3127 28.9872 85.7156 30.0188L80.5422 38.9578C79.601 40.5829 79.9086 42.642 81.283 43.926C84.8109 47.2145 87.349 51.4014 88.6221 56.0304Z" fill="#E0995E"/>
<path d="M76.0972 19.832C71.9203 18.6166 67.5638 18 63.1481 18C57.8101 18 52.6028 18.8924 47.6668 20.6515C46.5384 21.0534 45.6508 21.9162 45.2426 23.0095C44.8345 24.1009 44.9447 25.3124 45.5467 26.319L50.7561 35.0301C51.4988 36.2731 52.8619 37 54.2903 37C54.6861 37 55.084 36.9448 55.4778 36.8286C57.9571 36.0997 60.5363 35.7294 63.1481 35.7294C65.0152 35.7294 66.9006 35.9264 68.7473 36.3164C69.037 36.3775 69.3309 36.407 69.6186 36.407C71.0551 36.407 72.412 35.6742 73.1527 34.4371L78.454 25.5744C79.0763 24.5323 79.1722 23.2715 78.7131 22.1546C78.254 21.0357 77.2909 20.1807 76.0972 19.832Z" fill="#C75C5C"/>
<path d="M102.951 67H92.5246C90.7009 67 89.1039 68.2153 88.6202 69.9696C87.347 74.6006 84.8089 78.7875 81.283 82.0761C79.9086 83.358 79.601 85.4171 80.5422 87.0422L85.7157 95.9812C86.3128 97.0128 87.3349 97.7295 88.5109 97.9374C88.7477 97.9798 88.9845 98 89.2213 98C90.1605 98 91.0794 97.675 91.8121 97.0653C99.5622 90.6295 104.928 81.6683 106.92 71.8369C107.161 70.6499 106.853 69.4185 106.086 68.4798C105.315 67.543 104.165 67 102.951 67Z" fill="#F5CF87"/>
<path d="M39.0325 31.0593C38.3955 29.9699 37.2902 29.2265 36.0328 29.0432C35.8309 29.0144 35.629 29 35.4271 29C34.3737 29 33.3496 29.3954 32.5731 30.1203C25.6433 36.5783 20.9782 44.8567 19.0839 54.0597C18.8341 55.2706 19.1485 56.5309 19.9395 57.4885C20.7284 58.444 21.9129 59 23.1619 59H33.8846C35.756 59 37.3963 57.7644 37.8959 55.9811C39.0158 51.9798 41.1017 48.236 43.9223 45.1532C45.1359 43.827 45.3462 41.8789 44.4427 40.3283L39.0325 31.0593Z" fill="#4F5D73"/>
<circle cx="63" cy="63" r="10" fill="#027AFF"/>
</svg>
